<?xml version="1.0" encoding="UTF-8"?>
<!DOCTYPE svg>
<svg xmlns="http://www.w3.org/2000/svg" xml:space="preserve" width="91.0154mm" height="23.1812mm" version="1.1" style="shape-rendering:geometricPrecision; text-rendering:geometricPrecision; image-rendering:optimizeQuality; fill-rule:evenodd; clip-rule:evenodd"
viewBox="0 0 31071.4 7913.7"
 xmlns:xlink="http://www.w3.org/1999/xlink">
 <defs>
  <style type="text/css">
    .fil1 {fill:#FF5A00}
    .fil0 {fill:#333333;fill-rule:nonzero}
  </style>
 </defs>
 <g>
  <path class="fil0" d="M2500.2 1492.8l0 5036.5 -1293.5 0 0 -3078.3 -1206.7 0 0 -903.3c433.6,-14.4 776.8,-97.5 1029.7,-249.3 252.9,-151.7 403.5,-420.3 451.6,-805.7l1018.9 0zm4482 3027.7l1336.8 0c-4.8,197.5 -22.9,352.9 -54.2,466.1 -31.3,113.2 -92.7,261.3 -184.2,444.4 -399.9,814.1 -1108,1221.2 -2124.5,1221.2 -785.2,0 -1410.3,-254.1 -1875.1,-762.3 -464.9,-508.2 -697.3,-1157.4 -697.3,-1947.4 0,-790 240.9,-1434.4 722.6,-1933 481.7,-498.6 1105.6,-747.9 1871.5,-747.9 602.2,0 1127.3,175.8 1575.3,527.5 448,351.7 693.7,821.4 737.1,1409.1l-1322.4 0c-115.6,-539.6 -455.2,-809.3 -1018.9,-809.3 -366.1,0 -658.8,143.3 -878,429.9 -219.2,286.6 -328.8,670.8 -328.8,1152.6 0,467.3 109.6,840.6 328.8,1120 219.2,279.4 511.8,419.1 878,419.1 592.5,0 937,-330 1033.3,-990zm6005.3 -3136.1l0 5144.9 -1351.3 0 0 -2124.4 -1741.4 0 0 2124.4 -1351.3 0 0 -5144.9 1351.3 0 0 1835.4 1741.4 0 0 -1835.4 1351.3 0zm3201.6 -7.2l1922.1 5152.2 -1387.4 0 -332.4 -939.4 -1777.6 0 -339.6 939.4 -1373 0 1929.3 -5152.2 1358.5 0zm-101.2 3244.5l-578.1 -1799.3 -592.5 1799.3 1170.6 0zm1944.3 1907.7l0 -5144.9 1344 0 1857.1 3251.7 -57.8 -3251.7 1300.7 0 0 5144.9 -1307.9 0 -1878.8 -3302.3 36.1 3302.3 -1293.4 0z"/>
  <path class="fil1" d="M28470.5 0l-5412.8 7913.7 2389.7 0 1680.3 -2487.3 1431.8 2487.3 2512 0 -1671.6 -2487.4 -2272.2 0 3665.8 -5426.3 -2323 0zm-2723.1 0l1230.2 2182.6 -2161.8 0 -1502.5 -2182.6 2434.1 0z"/>
 </g>
</svg>
